<svg xmlns="http://www.w3.org/2000/svg" width="419.532" height="37.063" viewBox="0 0 419.532 37.063">
  <g id="Component_7_1" data-name="Component 7 – 1" transform="translate(0 0.532)">
    <g id="Group_5714" data-name="Group 5714" transform="translate(110 1)">
      <g id="Rectangle_1796" data-name="Rectangle 1796" fill="#fff" stroke="#d2d2d2" stroke-width="1">
        <rect width="50" height="34" rx="2" stroke="none"/>
        <rect x="0.5" y="0.5" width="49" height="33" rx="1.5" fill="none"/>
      </g>
      <g id="Mastercard-logo" transform="translate(12 9)">
        <g id="Group_5345" data-name="Group 5345">
          <g id="Group_5342" data-name="Group 5342" transform="translate(25.253 12.646)">
            <path id="Path_1530" data-name="Path 1530" d="M-4.525-2.087V-2.4h-.082l-.095.213L-4.8-2.4h-.082v.31h.058v-.234l.089.2h.06l.089-.2v.234Zm-.519,0v-.257h.1V-2.4h-.268v.052h.1v.257Z" transform="translate(5.207 2.397)" fill="#f79410"/>
          </g>
          <path id="Path_1531" data-name="Path 1531" d="M3350.085,2160.151H3343v-12.579h7.082Z" transform="translate(-3333.454 -2145.86)" fill="#ff5f00"/>
          <g id="Group_5343" data-name="Group 5343" transform="translate(0 0)">
            <path id="Path_1532" data-name="Path 1532" d="M-66.388-53.809A7.954,7.954,0,0,1-63.3-60.1a8.118,8.118,0,0,0-5-1.71,8.047,8.047,0,0,0-8.093,8,8.047,8.047,0,0,0,8.093,8,8.118,8.118,0,0,0,5-1.71,7.954,7.954,0,0,1-3.091-6.29" transform="translate(76.392 61.809)" fill="#eb001b"/>
          </g>
          <g id="Group_5344" data-name="Group 5344" transform="translate(13.087 0)">
            <path id="Path_1533" data-name="Path 1533" d="M-86.906-53.809a8.047,8.047,0,0,1-8.093,8,8.121,8.121,0,0,1-5-1.71,7.953,7.953,0,0,0,3.092-6.29A7.953,7.953,0,0,0-100-60.1a8.121,8.121,0,0,1,5-1.71,8.047,8.047,0,0,1,8.093,8" transform="translate(100.001 61.809)" fill="#f79e1b"/>
          </g>
        </g>
      </g>
    </g>
    <g id="Group_5715" data-name="Group 5715" transform="translate(55 1)">
      <g id="Rectangle_1796-2" data-name="Rectangle 1796" fill="#fff" stroke="#d2d2d2" stroke-width="1">
        <rect width="50" height="34" rx="2" stroke="none"/>
        <rect x="0.5" y="0.5" width="49" height="33" rx="1.5" fill="none"/>
      </g>
      <g id="Visa_Inc._logo" transform="translate(10 13)">
        <path id="polygon9" d="M435.827,119.439h-2.32l1.451-8.712h2.32Z" transform="translate(-423.418 -110.569)" fill="#00579f"/>
        <path id="path11" d="M572.137,105.419a5.866,5.866,0,0,0-2.081-.371c-2.291,0-3.9,1.186-3.914,2.882-.019,1.251,1.155,1.946,2.033,2.364.9.426,1.2.7,1.2,1.085-.009.584-.725.853-1.393.853a4.732,4.732,0,0,1-2.177-.463l-.305-.139-.325,1.956a7.244,7.244,0,0,0,2.587.464c2.434,0,4.019-1.168,4.037-2.975.009-.992-.611-1.752-1.947-2.373-.811-.4-1.308-.667-1.308-1.075.01-.371.42-.751,1.336-.751a4.041,4.041,0,0,1,1.728.334l.21.093.315-1.881Z" transform="translate(-551.319 -105.048)" fill="#00579f"/>
        <path id="path13" d="M794.111,116.353c.191-.5.926-2.438.926-2.438-.01.019.191-.51.305-.834l.162.751s.439,2.085.535,2.521Zm2.863-5.626H795.18a1.148,1.148,0,0,0-1.212.723l-3.446,7.989h2.434l.487-1.307h2.978c.067.306.277,1.307.277,1.307h2.148l-1.871-8.712Z" transform="translate(-770.209 -110.569)" fill="#00579f"/>
        <path id="path15" d="M171.563,110.727l-2.272,5.941-.248-1.2a6.724,6.724,0,0,0-3.207-3.652l2.081,7.619h2.453l3.646-8.7Z" transform="translate(-163.411 -110.569)" fill="#00579f"/>
        <path id="path17" d="M84.936,110.727H81.2l-.038.176a7.7,7.7,0,0,1,5.632,4.56l-.811-4a.958.958,0,0,0-1.05-.732Z" transform="translate(-81.166 -110.569)" fill="#faa61a"/>
      </g>
    </g>
    <g id="Group_5716" data-name="Group 5716" transform="translate(0 1)">
      <g id="Rectangle_1796-3" data-name="Rectangle 1796" fill="#fff" stroke="#d2d2d2" stroke-width="1">
        <rect width="50" height="34" rx="2" stroke="none"/>
        <rect x="0.5" y="0.5" width="49" height="33" rx="1.5" fill="none"/>
      </g>
      <g id="PayPal" transform="translate(6 12)">
        <path id="Path_4684" data-name="Path 4684" d="M38.989,6.749H36.831a.3.3,0,0,0-.3.252l-.873,5.521a.179.179,0,0,0,.178.207h1.03a.3.3,0,0,0,.3-.253l.235-1.489a.3.3,0,0,1,.3-.253h.683a2.215,2.215,0,0,0,2.456-2.046,1.655,1.655,0,0,0-.275-1.39A2.005,2.005,0,0,0,38.989,6.749Zm.249,2.016c-.118.773-.71.773-1.282.773h-.326L37.859,8.1a.18.18,0,0,1,.178-.151h.149c.39,0,.757,0,.947.222A.716.716,0,0,1,39.238,8.765Z" transform="translate(-24.407 -4.624)" fill="#253b80"/>
        <path id="Path_4685" data-name="Path 4685" d="M56.052,12.864H55.019a.18.18,0,0,0-.178.151L54.8,13.3l-.072-.1a1.473,1.473,0,0,0-1.221-.432,2.375,2.375,0,0,0-2.307,2.073,1.942,1.942,0,0,0,.385,1.584,1.619,1.619,0,0,0,1.3.524,1.979,1.979,0,0,0,1.43-.59l-.046.286a.179.179,0,0,0,.177.208h.931a.3.3,0,0,0,.3-.253l.559-3.529A.179.179,0,0,0,56.052,12.864ZM54.612,14.87a1.151,1.151,0,0,1-1.166.984.8.8,0,0,1-.856-1,1.156,1.156,0,0,1,1.158-.992.873.873,0,0,1,.689.281A.891.891,0,0,1,54.612,14.87Z" transform="translate(-35.018 -8.748)" fill="#253b80"/>
        <path id="Path_4686" data-name="Path 4686" d="M73.653,13.075H72.614a.3.3,0,0,0-.248.131l-1.432,2.1-.607-2.023a.3.3,0,0,0-.288-.213H69.018a.18.18,0,0,0-.171.237l1.144,3.349-1.075,1.514a.179.179,0,0,0,.147.283H70.1a.3.3,0,0,0,.246-.128L73.8,13.357A.179.179,0,0,0,73.653,13.075Z" transform="translate(-47.114 -8.959)" fill="#253b80"/>
        <path id="Path_4687" data-name="Path 4687" d="M87.77,6.749H85.612a.3.3,0,0,0-.3.252l-.873,5.521a.179.179,0,0,0,.177.207h1.108a.21.21,0,0,0,.207-.177l.248-1.565a.3.3,0,0,1,.3-.253h.683a2.215,2.215,0,0,0,2.457-2.046,1.654,1.654,0,0,0-.275-1.39A2,2,0,0,0,87.77,6.749Zm.249,2.016c-.118.773-.709.773-1.282.773h-.325L86.641,8.1a.179.179,0,0,1,.177-.151h.149c.389,0,.757,0,.947.222A.716.716,0,0,1,88.019,8.765Z" transform="translate(-57.794 -4.624)" fill="#179bd7"/>
        <path id="Path_4688" data-name="Path 4688" d="M104.835,12.864H103.8a.179.179,0,0,0-.177.151l-.046.288-.073-.1a1.472,1.472,0,0,0-1.22-.432,2.374,2.374,0,0,0-2.307,2.073,1.943,1.943,0,0,0,.385,1.584,1.62,1.62,0,0,0,1.3.524,1.979,1.979,0,0,0,1.43-.59l-.046.286a.18.18,0,0,0,.178.208h.931a.3.3,0,0,0,.3-.253l.559-3.529A.18.18,0,0,0,104.835,12.864Zm-1.441,2.007a1.151,1.151,0,0,1-1.166.984.8.8,0,0,1-.856-1,1.156,1.156,0,0,1,1.158-.992.873.873,0,0,1,.689.281A.886.886,0,0,1,103.395,14.87Z" transform="translate(-68.408 -8.748)" fill="#179bd7"/>
        <path id="Path_4689" data-name="Path 4689" d="M117.369,6.9l-.886,5.622a.179.179,0,0,0,.177.207h.891a.3.3,0,0,0,.3-.253l.874-5.52a.18.18,0,0,0-.177-.207h-1A.18.18,0,0,0,117.369,6.9Z" transform="translate(-79.723 -4.624)" fill="#179bd7"/>
        <path id="Path_4690" data-name="Path 4690" d="M3.019,9.879l.165-1.046-.368-.008H1.061l1.22-7.717a.1.1,0,0,1,.034-.06.1.1,0,0,1,.065-.024H5.34a2.639,2.639,0,0,1,2.015.607,1.382,1.382,0,0,1,.323.6,2.173,2.173,0,0,1,0,.832l0,.024V3.3l.166.094a1.164,1.164,0,0,1,.336.256,1.189,1.189,0,0,1,.273.61,2.574,2.574,0,0,1-.039.885,3.112,3.112,0,0,1-.364,1,2.063,2.063,0,0,1-.576.63,2.339,2.339,0,0,1-.776.349,3.877,3.877,0,0,1-.969.112H5.5a.692.692,0,0,0-.685.583l-.017.094L4.5,9.761l-.013.068a.058.058,0,0,1-.018.039.049.049,0,0,1-.03.011H3.019Z" transform="translate(-0.726 -0.702)" fill="#253b80"/>
        <path id="Path_4691" data-name="Path 4691" d="M11.509,7.667h0q-.013.085-.03.173a3.1,3.1,0,0,1-3.432,2.69H7.178a.421.421,0,0,0-.417.356h0L6.317,13.7l-.126.8a.222.222,0,0,0,.219.256h1.54a.37.37,0,0,0,.366-.312l.015-.078.29-1.836.019-.1a.37.37,0,0,1,.366-.312h.23a2.714,2.714,0,0,0,3-2.353,2,2,0,0,0-.309-1.77A1.472,1.472,0,0,0,11.509,7.667Z" transform="translate(-4.235 -5.253)" fill="#179bd7"/>
        <path id="Path_4692" data-name="Path 4692" d="M12.344,6.847q-.089-.026-.184-.047t-.2-.037a4.835,4.835,0,0,0-.766-.056H8.878a.37.37,0,0,0-.366.312l-.494,3.118-.014.091a.421.421,0,0,1,.417-.356H9.29a3.1,3.1,0,0,0,3.431-2.69c.012-.059.021-.117.03-.173a2.084,2.084,0,0,0-.321-.135Z" transform="translate(-5.479 -4.596)" fill="#222d65"/>
        <path id="Path_4693" data-name="Path 4693" d="M3.034,2.424A.37.37,0,0,1,3.4,2.112H5.72a4.835,4.835,0,0,1,.766.056q.1.016.2.037t.184.047l.088.027a2.115,2.115,0,0,1,.321.135,1.885,1.885,0,0,0-.4-1.7A2.945,2.945,0,0,0,4.614,0H1.654a.423.423,0,0,0-.418.357L0,8.153a.254.254,0,0,0,.251.293H2.082l.459-2.9Z" transform="translate(0)" fill="#253b80"/>
      </g>
    </g>
    <g id="Group_5710" data-name="Group 5710" transform="translate(165 1)">
      <g id="Group_5707" data-name="Group 5707">
        <g id="Rectangle_1815" data-name="Rectangle 1815" fill="#fff" stroke="#d2d2d2" stroke-width="1">
          <rect width="50" height="34" rx="2" stroke="none"/>
          <rect x="0.5" y="0.5" width="49" height="33" rx="1.5" fill="none"/>
        </g>
        <path id="path16" d="M93.446,221.776s-12.008,7.829-34,11.333h34V221.776" transform="translate(-44.446 -200.054)" fill="#f46f1b"/>
        <g id="Discover_Acceptance_Mark__Flat_" data-name="Discover_Acceptance_Mark_(Flat)" transform="translate(4.166 13)">
          <g id="Group_5674" data-name="Group 5674">
            <path id="path20-7" d="M15.395,184.257a2.317,2.317,0,0,1-1.672.5h-.328v-4.142h.328a2.266,2.266,0,0,1,1.672.507,2.109,2.109,0,0,1,.677,1.559A2.15,2.15,0,0,1,15.395,184.257Zm-1.427-4.706H12.174v6.264h1.784a3.261,3.261,0,0,0,2.235-.723,3.134,3.134,0,0,0-2.226-5.541" transform="translate(-12.174 -179.374)"/>
            <path id="path22" d="M47.126,185.816h1.222v-6.264H47.126v6.264" transform="translate(-41.407 -179.374)"/>
            <path id="path24" d="M59.934,181.426c-.733-.271-.949-.45-.949-.789,0-.394.384-.694.91-.694a1.264,1.264,0,0,1,.985.507l.639-.837a2.741,2.741,0,0,0-1.841-.695,1.84,1.84,0,0,0-1.954,1.795c0,.863.394,1.3,1.541,1.718a4.881,4.881,0,0,1,.845.357.75.75,0,0,1,.366.648.893.893,0,0,1-.949.884,1.445,1.445,0,0,1-1.334-.835l-.789.76a2.434,2.434,0,0,0,2.169,1.192,2.02,2.02,0,0,0,2.16-2.057c0-1-.412-1.446-1.8-1.954" transform="translate(-50.006 -178.845)"/>
            <path id="path26" d="M86.223,181.964a3.244,3.244,0,0,0,3.306,3.269,3.379,3.379,0,0,0,1.532-.365V183.43a1.954,1.954,0,0,1-1.475.686,2.047,2.047,0,0,1-2.1-2.161,2.082,2.082,0,0,1,2.047-2.151,2.048,2.048,0,0,1,1.532.7v-1.437a3.121,3.121,0,0,0-1.5-.385,3.294,3.294,0,0,0-3.335,3.278" transform="translate(-74.108 -178.651)"/>
            <path id="path28" d="M159.645,183.759l-1.671-4.207H156.64l2.658,6.425h.658l2.706-6.425h-1.324l-1.692,4.207" transform="translate(-133.005 -179.374)"/>
            <path id="path30" d="M196.824,185.816h3.465v-1.06h-2.244v-1.691h2.161V182h-2.161v-1.39h2.244v-1.061h-3.465v6.264" transform="translate(-166.614 -179.374)"/>
            <path id="path32" d="M224.526,182.435h-.357v-1.9h.376c.761,0,1.174.319,1.174.929C225.72,182.1,225.306,182.435,224.526,182.435Zm2.451-1.034c0-1.173-.808-1.849-2.217-1.849h-1.812v6.264h1.22V183.3h.159l1.691,2.516h1.5l-1.972-2.639a1.666,1.666,0,0,0,1.427-1.776" transform="translate(-188.465 -179.374)"/>
            <path id="path34" d="M250.64,180.035h-.022v-.144h.024c.065,0,.1.023.1.071s-.034.073-.1.073Zm.232-.075c0-.11-.076-.17-.208-.17h-.177v.551h.131v-.213l.154.213h.16l-.181-.227a.151.151,0,0,0,.12-.154" transform="translate(-211.497 -179.574)"/>
            <path id="path36" d="M249.277,179.407a.394.394,0,1,1,.38-.393A.388.388,0,0,1,249.277,179.407Zm0-.874a.48.48,0,1,0,.474.48.477.477,0,0,0-.474-.48" transform="translate(-210.086 -178.522)"/>
            <path id="path42" d="M118.227,181.8v0a3.332,3.332,0,0,1,6.665,0v0a3.332,3.332,0,1,1-6.665,0" transform="translate(-100.876 -178.468)" fill="#f46f1b"/>
          </g>
        </g>
      </g>
      <g id="Rectangle_1796-4" data-name="Rectangle 1796" fill="none" stroke="#d2d2d2" stroke-width="1">
        <rect width="50" height="34" rx="2" stroke="none"/>
        <rect x="0.5" y="0.5" width="49" height="33" rx="1.5" fill="none"/>
      </g>
    </g>
    <g id="Group_5708" data-name="Group 5708" transform="translate(220 1)">
      <g id="Rectangle_1796-5" data-name="Rectangle 1796" fill="#fff" stroke="#d2d2d2" stroke-width="1">
        <rect width="50" height="34" rx="2" stroke="none"/>
        <rect x="0.5" y="0.5" width="49" height="33" rx="1.5" fill="none"/>
      </g>
      <g id="Group_5675" data-name="Group 5675" transform="translate(5.208 10.389)">
        <g id="American_Express_logo__2018_" data-name="American_Express_logo_(2018)">
          <path id="path3082" d="M249.14,1546.751v-5.916H255.4l.672.876.694-.876h22.738v5.508a2.625,2.625,0,0,1-1.282.408H265.636l-.758-.932v.932H262.4v-1.592a2.084,2.084,0,0,1-1.073.222h-.845v1.37h-3.76l-.671-.895-.681.895Z" transform="translate(-241.825 -1533.082)" fill="#fff"/>
          <path id="path3080" d="M55.5,1338.916l1.413-3.293h2.443l.8,1.845v-1.845h3.037l.477,1.333.463-1.333H77.766v.67a2.941,2.941,0,0,1,1.894-.67l4.423.015.788,1.821v-1.836h2.541l.7,1.046v-1.046h2.565v5.916H88.113l-.67-1.049v1.049H83.709l-.376-.933h-1l-.369.933H79.428a2.5,2.5,0,0,1-1.661-.657v.657H73.949l-.758-.933v.933h-14.2l-.375-.933h-1l-.373.933H55.5Z" transform="translate(-55.5 -1335.622)" fill="#fff"/>
          <path id="path3046" d="M57.6,1354.929l-1.905,4.43h1.24l.352-.887h2.044l.35.887h1.268l-1.9-4.43Zm.7,1.031.623,1.55H57.678Z" transform="translate(-55.686 -1354.2)" fill="#016fd0"/>
          <path id="path3048" d="M198.223,1359.339v-4.43l1.763.006,1.025,2.856,1-2.863h1.749v4.43h-1.108v-3.264l-1.174,3.264h-.971l-1.177-3.264v3.264Z" transform="translate(-192.831 -1354.181)" fill="#016fd0"/>
          <path id="path3050" d="M364.861,1359.339v-4.43h3.614v.991H365.98v.758h2.437v.933H365.98v.787h2.495v.962Z" transform="translate(-353.174 -1354.181)" fill="#016fd0"/>
          <path id="path3052" d="M477.5,1354.929v4.43H478.6v-1.574h.466l1.328,1.574h1.353l-1.457-1.632a1.349,1.349,0,0,0,1.215-1.361,1.433,1.433,0,0,0-1.548-1.437Zm1.107.991h1.266a.508.508,0,0,1,.525.466.5.5,0,0,1-.508.466H478.6Z" transform="translate(-461.555 -1354.2)" fill="#016fd0"/>
          <path id="path3054" d="M596.817,1359.339h-1.131v-4.43h1.131Z" transform="translate(-575.28 -1354.181)" fill="#016fd0"/>
          <path id="path3056" d="M642.034,1359.339h-.244a1.952,1.952,0,0,1-1.9-2.2,2.03,2.03,0,0,1,2.2-2.233h1.224v1.049h-1.269a1.065,1.065,0,0,0-1.034,1.195,1.085,1.085,0,0,0,1.195,1.218h.291Z" transform="translate(-617.815 -1354.181)" fill="#016fd0"/>
          <path id="path3058" d="M711.857,1354.929l-1.905,4.43h1.24l.352-.887h2.044l.35.887H715.2l-1.9-4.43Zm.7,1.031.623,1.55h-1.248Z" transform="translate(-685.228 -1354.2)" fill="#016fd0"/>
          <path id="path3060" d="M852.433,1359.339v-4.43h1.408l1.8,2.783v-2.783h1.107v4.43h-1.362l-1.844-2.856v2.856Z" transform="translate(-822.327 -1354.181)" fill="#016fd0"/>
          <path id="path3062" d="M269.2,1564.552v-4.43h3.614v.991h-2.495v.758h2.436v.932h-2.436v.787h2.495v.962Z" transform="translate(-261.125 -1551.64)" fill="#016fd0"/>
          <path id="path3064" d="M737.947,1564.552v-4.43h3.614v.991h-2.495v.758h2.425v.932h-2.425v.787h2.495v.962Z" transform="translate(-712.165 -1551.64)" fill="#016fd0"/>
          <path id="path3066" d="M367.507,1564.552l1.76-2.188-1.8-2.242h1.4l1.073,1.386,1.077-1.386h1.341l-1.778,2.215,1.763,2.215h-1.4l-1.042-1.364-1.016,1.364Z" transform="translate(-355.68 -1551.64)" fill="#016fd0"/>
          <path id="path3068" d="M499.869,1560.141v4.43h1.137v-1.4h1.166a1.532,1.532,0,0,0,1.734-1.541,1.458,1.458,0,0,0-1.59-1.49Zm1.137,1h1.228a.5.5,0,0,1,.546.51.511.511,0,0,1-.55.51h-1.224Z" transform="translate(-483.082 -1551.66)" fill="#016fd0"/>
          <path id="path3072" d="M619.448,1560.121v4.43h1.107v-1.574h.466l1.328,1.574H623.7l-1.457-1.632a1.349,1.349,0,0,0,1.215-1.361,1.433,1.433,0,0,0-1.548-1.437Zm1.107.991h1.266a.508.508,0,0,1,.525.466.5.5,0,0,1-.508.466h-1.282Z" transform="translate(-598.143 -1551.64)" fill="#016fd0"/>
          <path id="path3074" d="M843.606,1564.552v-.962h2.216c.328,0,.47-.177.47-.372s-.142-.374-.47-.374h-1a1.239,1.239,0,0,1-1.355-1.327c0-.71.444-1.4,1.738-1.4h2.157l-.466,1h-1.865c-.357,0-.466.187-.466.366a.386.386,0,0,0,.408.386h1.049a1.215,1.215,0,0,1,1.392,1.271,1.328,1.328,0,0,1-1.445,1.41Z" transform="translate(-813.697 -1551.64)" fill="#016fd0"/>
          <path id="path3076" d="M951.2,1564.552v-.962h2.216c.328,0,.47-.177.47-.372s-.142-.374-.47-.374h-1a1.239,1.239,0,0,1-1.355-1.327c0-.71.444-1.4,1.738-1.4h2.157l-.466,1h-1.865c-.357,0-.466.187-.466.366a.386.386,0,0,0,.408.386h1.049a1.215,1.215,0,0,1,1.392,1.271,1.328,1.328,0,0,1-1.444,1.41Z" transform="translate(-917.229 -1551.64)" fill="#016fd0"/>
        </g>
      </g>
    </g>
    <g id="secured_by_paypal" transform="translate(275 1)">
      <rect id="Rectangle_3213" data-name="Rectangle 3213" width="99" height="34" rx="2" fill="#fff"/>
      <path id="Path_16390" data-name="Path 16390" d="M3,0H50L45,34H3a2,2,0,0,1-2-2V2A2,2,0,0,1,3,0Z" fill="#003087"/>
      <g id="PayPal-2" data-name="PayPal" transform="translate(53 12)">
        <path id="Path_4684-2" data-name="Path 4684" d="M40.46,6.749H37.349a.437.437,0,0,0-.427.376l-1.258,8.231a.265.265,0,0,0,.257.309h1.485a.437.437,0,0,0,.427-.377l.339-2.22a.436.436,0,0,1,.427-.377h.985a3.226,3.226,0,0,0,3.541-3.051,2.534,2.534,0,0,0-.4-2.072A2.836,2.836,0,0,0,40.46,6.749Zm.359,3.006c-.17,1.152-1.023,1.152-1.848,1.152H38.5l.329-2.151a.262.262,0,0,1,.256-.226H39.3c.562,0,1.092,0,1.366.33A1.1,1.1,0,0,1,40.819,9.755Z" transform="translate(-35.66 -6.749)" fill="#002f86"/>
        <path id="Path_4685-2" data-name="Path 4685" d="M58.211,12.912h-1.49a.262.262,0,0,0-.256.226l-.066.43-.1-.156a2.084,2.084,0,0,0-1.76-.644,3.466,3.466,0,0,0-3.326,3.091,2.97,2.97,0,0,0,.555,2.361A2.3,2.3,0,0,0,53.64,19a2.817,2.817,0,0,0,2.062-.88l-.066.427a.265.265,0,0,0,.256.31h1.342a.437.437,0,0,0,.427-.377l.805-5.261A.264.264,0,0,0,58.211,12.912ZM56.134,15.9a1.677,1.677,0,0,1-1.681,1.468,1.238,1.238,0,0,1-1-.414,1.339,1.339,0,0,1-.234-1.08,1.685,1.685,0,0,1,1.67-1.479,1.238,1.238,0,0,1,.994.419A1.362,1.362,0,0,1,56.134,15.9Z" transform="translate(-44.111 -9.942)" fill="#002f86"/>
        <path id="Path_4686-2" data-name="Path 4686" d="M75.779,13.075h-1.5a.43.43,0,0,0-.358.2l-2.065,3.138-.875-3.016a.436.436,0,0,0-.415-.318H69.1a.267.267,0,0,0-.246.354L70.5,18.422,68.95,20.68a.268.268,0,0,0,.212.422h1.5a.428.428,0,0,0,.355-.192l4.98-7.416A.268.268,0,0,0,75.779,13.075Z" transform="translate(-53.744 -10.105)" fill="#002f86"/>
        <path id="Path_4687-2" data-name="Path 4687" d="M89.241,6.749H86.129a.437.437,0,0,0-.427.376l-1.258,8.231a.265.265,0,0,0,.256.309h1.6a.306.306,0,0,0,.3-.264l.357-2.333a.436.436,0,0,1,.427-.377h.984A3.227,3.227,0,0,0,91.9,9.641a2.533,2.533,0,0,0-.4-2.072A2.834,2.834,0,0,0,89.241,6.749ZM89.6,9.755c-.17,1.152-1.023,1.152-1.848,1.152h-.469l.33-2.151a.261.261,0,0,1,.256-.226h.215c.561,0,1.092,0,1.366.33A1.1,1.1,0,0,1,89.6,9.755Z" transform="translate(-62.249 -6.749)" fill="#009cde"/>
        <path id="Path_4688-2" data-name="Path 4688" d="M106.993,12.912H105.5a.261.261,0,0,0-.256.226l-.066.43-.1-.156a2.083,2.083,0,0,0-1.759-.644,3.466,3.466,0,0,0-3.326,3.091,2.972,2.972,0,0,0,.555,2.361,2.3,2.3,0,0,0,1.877.782,2.817,2.817,0,0,0,2.062-.88l-.066.427a.265.265,0,0,0,.257.31h1.342a.437.437,0,0,0,.427-.377l.806-5.261A.265.265,0,0,0,106.993,12.912ZM104.916,15.9a1.676,1.676,0,0,1-1.681,1.468,1.239,1.239,0,0,1-1-.414,1.342,1.342,0,0,1-.234-1.08,1.685,1.685,0,0,1,1.67-1.479,1.238,1.238,0,0,1,.994.419A1.355,1.355,0,0,1,104.916,15.9Z" transform="translate(-70.702 -9.942)" fill="#009cde"/>
        <path id="Path_4689-2" data-name="Path 4689" d="M117.761,6.974l-1.277,8.382a.264.264,0,0,0,.256.309h1.284a.436.436,0,0,0,.427-.377l1.259-8.231a.265.265,0,0,0-.256-.309h-1.438A.263.263,0,0,0,117.761,6.974Z" transform="translate(-79.713 -6.748)" fill="#009cde"/>
      </g>
      <path id="Path_15825" data-name="Path 15825" d="M4.1-8.875a1.736,1.736,0,0,0-.562-.635,1.571,1.571,0,0,0-.925-.258A1.486,1.486,0,0,0,.994-8.291a1.185,1.185,0,0,0,.4.936,2.557,2.557,0,0,0,.77.472l.519.24a2.521,2.521,0,0,1,.692.395.851.851,0,0,1,.285.67A1.088,1.088,0,0,1,2.5-4.445a1.107,1.107,0,0,1-.83-.318,1.347,1.347,0,0,1-.346-.73L.7-5.321a2.071,2.071,0,0,0,.536,1.013,1.728,1.728,0,0,0,1.254.464A1.725,1.725,0,0,0,4.315-5.6,1.373,1.373,0,0,0,3.9-6.643a2.805,2.805,0,0,0-.891-.541l-.553-.24a1.886,1.886,0,0,1-.605-.361.6.6,0,0,1-.216-.5A.882.882,0,0,1,2.6-9.167a1.043,1.043,0,0,1,.649.2,1.381,1.381,0,0,1,.337.429ZM7.826-5.14a1.42,1.42,0,0,1-.372.489,1.1,1.1,0,0,1-.735.258A1.145,1.145,0,0,1,5.577-5.6H8.37a2.379,2.379,0,0,0-.337-1.339A1.609,1.609,0,0,0,6.675-7.6,1.733,1.733,0,0,0,4.937-5.707,1.711,1.711,0,0,0,6.71-3.844,1.749,1.749,0,0,0,7.9-4.282a2.133,2.133,0,0,0,.441-.575ZM5.62-6.119a1.088,1.088,0,0,1,1.055-.927,1.071,1.071,0,0,1,1.055.927Zm6.339-1.133A1.91,1.91,0,0,0,10.844-7.6a1.848,1.848,0,0,0-1.92,1.889,1.832,1.832,0,0,0,1.92,1.863,1.926,1.926,0,0,0,1.141-.369v-.738a1.534,1.534,0,0,1-1.159.558A1.244,1.244,0,0,1,9.564-5.716a1.244,1.244,0,0,1,1.271-1.331,1.452,1.452,0,0,1,1.124.532Zm1.427-.258h-.623v2.146a1.409,1.409,0,0,0,.329,1.073,1.505,1.505,0,0,0,1.1.446,1.505,1.505,0,0,0,1.1-.446,1.409,1.409,0,0,0,.329-1.073V-7.51h-.623v2.078a1.206,1.206,0,0,1-.173.764.764.764,0,0,1-.631.275.764.764,0,0,1-.631-.275,1.206,1.206,0,0,1-.173-.764ZM16.62-3.947h.623v-1.88a1.529,1.529,0,0,1,.208-.962.6.6,0,0,1,.5-.223.644.644,0,0,1,.363.12l.294-.558a1.323,1.323,0,0,0-.553-.146,1,1,0,0,0-.813.472V-7.51H16.62ZM21.463-5.14a1.42,1.42,0,0,1-.372.489,1.1,1.1,0,0,1-.735.258A1.145,1.145,0,0,1,19.215-5.6h2.793a2.379,2.379,0,0,0-.337-1.339A1.609,1.609,0,0,0,20.313-7.6a1.733,1.733,0,0,0-1.738,1.889,1.711,1.711,0,0,0,1.773,1.863,1.749,1.749,0,0,0,1.193-.438,2.133,2.133,0,0,0,.441-.575Zm-2.205-.979a1.088,1.088,0,0,1,1.055-.927,1.071,1.071,0,0,1,1.055.927ZM25.536-7A1.488,1.488,0,0,0,24.308-7.6a1.718,1.718,0,0,0-1.747,1.863,1.731,1.731,0,0,0,1.747,1.889,1.517,1.517,0,0,0,1.228-.6v.5h.623v-6.259h-.623Zm-1.159-.043a1.211,1.211,0,0,1,1.193,1.322,1.222,1.222,0,0,1-1.193,1.331A1.2,1.2,0,0,1,23.2-5.733,1.188,1.188,0,0,1,24.377-7.046Zm5.249,2.6a1.527,1.527,0,0,0,1.254.6A1.739,1.739,0,0,0,32.6-5.707,1.769,1.769,0,0,0,30.854-7.6a1.548,1.548,0,0,0-1.228.584v-3.194H29v6.259h.623Zm1.167.052a1.222,1.222,0,0,1-1.2-1.322,1.24,1.24,0,0,1,1.193-1.331,1.225,1.225,0,0,1,1.176,1.339A1.2,1.2,0,0,1,30.794-4.394Zm2.577,2.421h.692L36.7-7.51h-.692L34.841-4.96,33.57-7.51H32.86l1.652,3.228Z" transform="translate(6.3 23.206)" fill="#fff"/>
      <g id="Rectangle_4086" data-name="Rectangle 4086" fill="none" stroke="#d2d2d2" stroke-width="1">
        <rect width="99" height="34" rx="2" stroke="none"/>
        <rect x="0.5" y="0.5" width="98" height="33" rx="1.5" fill="none"/>
      </g>
    </g>
    <g id="Group_13923" data-name="Group 13923" transform="translate(383)">
      <path id="Path_434" data-name="Path 434" d="M-404.948-639A18,18,0,0,1-380-633.946,18,18,0,0,1-385.054-609,18,18,0,0,1-410-614.054a18,18,0,0,1-2.3-14.9" transform="translate(413 642)" fill="none" stroke="#000" stroke-linecap="round" stroke-linejoin="round" stroke-width="1"/>
      <line id="Line_17" data-name="Line 17" transform="translate(4.5 17.5)" fill="none" stroke="#0084f5" stroke-linecap="round" stroke-linejoin="round" stroke-width="1"/>
      <line id="Line_17-2" data-name="Line 17" transform="translate(31.5 17.5)" fill="none" stroke="#0084f5" stroke-linecap="round" stroke-linejoin="round" stroke-width="1"/>
      <g id="Group_13923-2" data-name="Group 13923" transform="translate(4.772 2.938)">
        <path id="Path_16431" data-name="Path 16431" d="M-405.621-630.918a.421.421,0,0,0-.286-.079.552.552,0,0,0-.192.069,2.135,2.135,0,0,0-.227.173q-.114.1-.234.2a2.442,2.442,0,0,1-.249.181.936.936,0,0,1-.272.117.777.777,0,0,1-.309.01.993.993,0,0,1-.352-.138.926.926,0,0,1-.468-.617,1.1,1.1,0,0,1,.176-.8c.034-.056.081-.125.142-.208a1.762,1.762,0,0,1,.2-.227.777.777,0,0,1,.23-.155.232.232,0,0,1,.223.012.243.243,0,0,1,.11.149.262.262,0,0,1-.04.207.364.364,0,0,1-.08.094c-.031.027-.066.055-.105.085a1.052,1.052,0,0,0-.119.108.9.9,0,0,0-.124.167.971.971,0,0,0-.085.182.492.492,0,0,0-.026.187.346.346,0,0,0,.059.175.5.5,0,0,0,.167.152.519.519,0,0,0,.159.068.462.462,0,0,0,.132.008.3.3,0,0,0,.105-.028.785.785,0,0,0,.081-.045,1.61,1.61,0,0,0,.233-.173c.076-.067.155-.133.236-.2a2.712,2.712,0,0,1,.25-.177.987.987,0,0,1,.269-.117.773.773,0,0,1,.3-.013.939.939,0,0,1,.345.135,1.069,1.069,0,0,1,.334.3.907.907,0,0,1,.156.373,1.03,1.03,0,0,1-.014.416,1.475,1.475,0,0,1-.176.423,2.3,2.3,0,0,1-.172.242,1.722,1.722,0,0,1-.224.234.881.881,0,0,1-.24.152.23.23,0,0,1-.217-.009.242.242,0,0,1-.111-.15.231.231,0,0,1,.027-.191.327.327,0,0,1,.083-.09l.126-.1a1.686,1.686,0,0,0,.15-.14,1.271,1.271,0,0,0,.154-.209.626.626,0,0,0,.113-.442A.483.483,0,0,0-405.621-630.918Z" transform="translate(408.228 639.062)" stroke="#000" stroke-miterlimit="10" stroke-width="0.2"/>
        <path id="Path_16432" data-name="Path 16432" d="M-403.74-633.156a.423.423,0,0,0-.26-.142.546.546,0,0,0-.2.023,2.082,2.082,0,0,0-.261.116c-.089.047-.18.093-.272.139a2.4,2.4,0,0,1-.284.118.9.9,0,0,1-.292.052.8.8,0,0,1-.3-.061,1,1,0,0,1-.311-.216.927.927,0,0,1-.314-.707,1.1,1.1,0,0,1,.355-.735c.045-.047.108-.1.186-.169a1.634,1.634,0,0,1,.25-.175.8.8,0,0,1,.26-.1.233.233,0,0,1,.214.064.236.236,0,0,1,.073.17.266.266,0,0,1-.086.192.372.372,0,0,1-.1.073c-.036.019-.077.039-.122.059a1.047,1.047,0,0,0-.14.077.928.928,0,0,0-.159.134.986.986,0,0,0-.125.158.486.486,0,0,0-.068.175.349.349,0,0,0,.017.185.491.491,0,0,0,.128.186.491.491,0,0,0,.139.1.444.444,0,0,0,.126.039.328.328,0,0,0,.109,0,.867.867,0,0,0,.089-.025,1.726,1.726,0,0,0,.266-.115c.091-.048.183-.094.276-.139a2.718,2.718,0,0,1,.284-.115.96.96,0,0,1,.289-.051.769.769,0,0,1,.3.057.975.975,0,0,1,.306.211,1.081,1.081,0,0,1,.255.37.922.922,0,0,1,.066.4,1.026,1.026,0,0,1-.11.4,1.473,1.473,0,0,1-.268.371,2.369,2.369,0,0,1-.223.2,1.708,1.708,0,0,1-.272.177.872.872,0,0,1-.268.092.23.23,0,0,1-.209-.058.246.246,0,0,1-.075-.172.234.234,0,0,1,.071-.18.342.342,0,0,1,.1-.068l.146-.069a1.487,1.487,0,0,0,.178-.1,1.288,1.288,0,0,0,.2-.167.63.63,0,0,0,.211-.4A.482.482,0,0,0-403.74-633.156Z" transform="translate(408.228 639.062)" stroke="#000" stroke-miterlimit="10" stroke-width="0.2"/>
        <path id="Path_16433" data-name="Path 16433" d="M-400.6-634.576a.236.236,0,0,1,.032.191.261.261,0,0,1-.115.158l-1.157.744a.292.292,0,0,1-.216.044.257.257,0,0,1-.18-.119l-1.6-2.481a.241.241,0,0,1-.03-.192.265.265,0,0,1,.119-.167.267.267,0,0,1,.2-.039.238.238,0,0,1,.162.108l1.481,2.3.951-.612a.259.259,0,0,1,.19-.038A.223.223,0,0,1-400.6-634.576Z" transform="translate(408.228 639.062)" stroke="#000" stroke-miterlimit="10" stroke-width="0.2"/>
        <path id="Path_16434" data-name="Path 16434" d="M-396.906-636.456a.42.42,0,0,0-.131-.266.589.589,0,0,0-.179-.1,2.4,2.4,0,0,0-.281-.055c-.1-.013-.2-.027-.3-.043a2.5,2.5,0,0,1-.3-.066.95.95,0,0,1-.269-.127.786.786,0,0,1-.212-.224.986.986,0,0,1-.13-.355.925.925,0,0,1,.151-.759,1.1,1.1,0,0,1,.713-.4c.064-.012.147-.022.25-.031a1.632,1.632,0,0,1,.3,0,.806.806,0,0,1,.268.07.233.233,0,0,1,.139.175.236.236,0,0,1-.039.181.261.261,0,0,1-.181.107.364.364,0,0,1-.123,0c-.041-.006-.085-.013-.133-.022a.947.947,0,0,0-.16-.018.894.894,0,0,0-.207.018.9.9,0,0,0-.193.058.493.493,0,0,0-.157.1.357.357,0,0,0-.092.161.5.5,0,0,0,0,.226.5.5,0,0,0,.055.163.443.443,0,0,0,.081.1.337.337,0,0,0,.09.06c.031.012.06.023.088.031a1.606,1.606,0,0,0,.284.059c.1.013.2.028.306.046a2.384,2.384,0,0,1,.3.069.955.955,0,0,1,.266.125.752.752,0,0,1,.212.219.937.937,0,0,1,.128.348,1.073,1.073,0,0,1,0,.449.92.92,0,0,1-.176.365,1.01,1.01,0,0,1-.321.265,1.439,1.439,0,0,1-.433.149,2.393,2.393,0,0,1-.3.032,1.726,1.726,0,0,1-.324-.012.887.887,0,0,1-.272-.079.232.232,0,0,1-.138-.168.246.246,0,0,1,.038-.183.231.231,0,0,1,.162-.107.361.361,0,0,1,.122,0l.158.028a1.468,1.468,0,0,0,.2.02,1.3,1.3,0,0,0,.258-.023.626.626,0,0,0,.406-.209A.485.485,0,0,0-396.906-636.456Z" transform="translate(408.228 639.062)" stroke="#000" stroke-miterlimit="10" stroke-width="0.2"/>
        <path id="Path_16435" data-name="Path 16435" d="M-393.506-635.812a.24.24,0,0,1-.086.181.268.268,0,0,1-.194.065l-1.291-.057a.565.565,0,0,1-.263-.073.233.233,0,0,1-.1-.231l.127-2.861a.278.278,0,0,1,.094-.193.284.284,0,0,1,.221-.081l1.32.059a.261.261,0,0,1,.187.084.247.247,0,0,1,.07.186.226.226,0,0,1-.086.172.283.283,0,0,1-.193.06l-1.087-.049-.043.96,1,.044a.278.278,0,0,1,.177.079.226.226,0,0,1,.075.182.241.241,0,0,1-.084.177.257.257,0,0,1-.191.064l-.994-.044-.043.975,1.135.05a.278.278,0,0,1,.185.079A.22.22,0,0,1-393.506-635.812Z" transform="translate(408.228 639.062)" stroke="#000" stroke-miterlimit="10" stroke-width="0.2"/>
        <path id="Path_16436" data-name="Path 16436" d="M-392.353-637.6a1.8,1.8,0,0,1,.207-.478,1.054,1.054,0,0,1,.315-.325.954.954,0,0,1,.418-.146,1.387,1.387,0,0,1,.527.054,1.667,1.667,0,0,1,.326.13,1.258,1.258,0,0,1,.261.179.727.727,0,0,1,.161.2.263.263,0,0,1,.027.192.225.225,0,0,1-.113.141.248.248,0,0,1-.19.017.21.21,0,0,1-.1-.049l-.072-.079-.019-.02a.758.758,0,0,0-.391-.252.8.8,0,0,0-.315-.032.49.49,0,0,0-.239.094.625.625,0,0,0-.173.21,1.573,1.573,0,0,0-.119.306l-.271.968a1.513,1.513,0,0,0-.058.323.63.63,0,0,0,.038.269.508.508,0,0,0,.155.206.816.816,0,0,0,.287.136.79.79,0,0,0,.462-.007l.028-.008.1-.029a.2.2,0,0,1,.107.007.243.243,0,0,1,.153.114.215.215,0,0,1,.024.174.266.266,0,0,1-.124.155.677.677,0,0,1-.242.086,1.4,1.4,0,0,1-.316.016,1.681,1.681,0,0,1-.346-.059,1.39,1.39,0,0,1-.478-.228.975.975,0,0,1-.281-.343,1.04,1.04,0,0,1-.1-.438,1.756,1.756,0,0,1,.072-.519Z" transform="translate(408.228 639.062)" stroke="#000" stroke-miterlimit="10" stroke-width="0.2"/>
        <path id="Path_16437" data-name="Path 16437" d="M-388.034-634.1a1.076,1.076,0,0,1-.386.213,1.036,1.036,0,0,1-.439.033,1.218,1.218,0,0,1-.463-.164,1.254,1.254,0,0,1-.381-.325,1.016,1.016,0,0,1-.188-.4,1.058,1.058,0,0,1,0-.438,1.459,1.459,0,0,1,.174-.452l1.039-1.793a.251.251,0,0,1,.161-.124.269.269,0,0,1,.207.033.25.25,0,0,1,.122.158.25.25,0,0,1-.026.2l-1.039,1.794a.8.8,0,0,0-.122.507.555.555,0,0,0,.307.4.547.547,0,0,0,.495.064.8.8,0,0,0,.38-.358l1.038-1.794a.259.259,0,0,1,.159-.123.251.251,0,0,1,.2.027.271.271,0,0,1,.132.166.251.251,0,0,1-.023.2l-1.039,1.794A1.429,1.429,0,0,1-388.034-634.1Z" transform="translate(408.228 639.062)" stroke="#000" stroke-miterlimit="10" stroke-width="0.2"/>
        <path id="Path_16438" data-name="Path 16438" d="M-384.331-633.084a.933.933,0,0,1-.571.3.955.955,0,0,1-.6-.148c-.053.223-.1.443-.151.66s-.1.437-.152.66a.13.13,0,0,1-.024.066.4.4,0,0,1-.042.055.235.235,0,0,1-.2.068.289.289,0,0,1-.186-.079.247.247,0,0,1-.075-.242l.38-1.568-.313-.315-.879.874a.24.24,0,0,1-.184.07.263.263,0,0,1-.191-.081.253.253,0,0,1-.077-.185.239.239,0,0,1,.074-.184l2.078-2.068a.277.277,0,0,1,.207-.082.286.286,0,0,1,.21.086l.6.6a1.456,1.456,0,0,1,.318.444.989.989,0,0,1,.085.41.815.815,0,0,1-.094.362A1.207,1.207,0,0,1-384.331-633.084Zm-.378-.38a.675.675,0,0,0,.111-.148.4.4,0,0,0,.046-.181.473.473,0,0,0-.051-.214.916.916,0,0,0-.187-.251l-.416-.418-.7.7.437.439a.674.674,0,0,0,.4.223A.445.445,0,0,0-384.709-633.464Z" transform="translate(408.228 639.062)" stroke="#000" stroke-miterlimit="10" stroke-width="0.2"/>
        <path id="Path_16439" data-name="Path 16439" d="M-384.375-629.191a.243.243,0,0,1-.2.029.271.271,0,0,1-.161-.125l-.666-1.108a.552.552,0,0,1-.084-.26.232.232,0,0,1,.135-.215l2.454-1.474a.28.28,0,0,1,.213-.029.284.284,0,0,1,.189.14l.681,1.133a.258.258,0,0,1,.033.2.246.246,0,0,1-.116.161.223.223,0,0,1-.191.023.276.276,0,0,1-.156-.128l-.561-.932-.823.495.512.853a.27.27,0,0,1,.033.191.225.225,0,0,1-.11.163.242.242,0,0,1-.194.028.256.256,0,0,1-.159-.123l-.513-.853-.836.5.585.974a.281.281,0,0,1,.037.2A.218.218,0,0,1-384.375-629.191Z" transform="translate(408.228 639.062)" stroke="#000" stroke-miterlimit="10" stroke-width="0.2"/>
      </g>
      <g id="Group_13924" data-name="Group 13924" transform="translate(3.902 21.596)">
        <path id="Path_16440" data-name="Path 16440" d="M-406.433-619.5l-.23-.543a.258.258,0,0,1-.006-.207.237.237,0,0,1,.13-.137.248.248,0,0,1,.185.006.247.247,0,0,1,.153.141l.671,1.581a.278.278,0,0,1,.006.2.228.228,0,0,1-.133.149.226.226,0,0,1-.19-.006.27.27,0,0,1-.145-.148l-.231-.543-2.514,1.067a.238.238,0,0,1-.192,0,.257.257,0,0,1-.146-.145.257.257,0,0,1,0-.205.247.247,0,0,1,.131-.141Z" transform="translate(409.098 620.404)" stroke="#000" stroke-miterlimit="10" stroke-width="0.2"/>
        <path id="Path_16441" data-name="Path 16441" d="M-404.572-615.487a.935.935,0,0,1-.608.215.961.961,0,0,1-.568-.23c-.084.213-.164.424-.242.633s-.158.419-.242.632a.126.126,0,0,1-.034.061.321.321,0,0,1-.048.049.236.236,0,0,1-.205.041.291.291,0,0,1-.173-.1.248.248,0,0,1-.041-.25l.6-1.5-.266-.355-.991.742a.244.244,0,0,1-.193.044.267.267,0,0,1-.178-.107.253.253,0,0,1-.05-.194.245.245,0,0,1,.1-.172l2.346-1.757a.281.281,0,0,1,.217-.053.288.288,0,0,1,.2.115l.509.68a1.428,1.428,0,0,1,.252.484.977.977,0,0,1,.027.418.8.8,0,0,1-.143.345A1.224,1.224,0,0,1-404.572-615.487Zm-.322-.429a.645.645,0,0,0,.13-.131.376.376,0,0,0,.072-.173.477.477,0,0,0-.021-.219.911.911,0,0,0-.15-.274l-.354-.472-.792.593.371.5a.674.674,0,0,0,.363.277A.441.441,0,0,0-404.894-615.916Z" transform="translate(409.098 620.404)" stroke="#000" stroke-miterlimit="10" stroke-width="0.2"/>
        <path id="Path_16442" data-name="Path 16442" d="M-405.03-612.768a.222.222,0,0,1-.168.041.29.29,0,0,1-.146-.054.3.3,0,0,1-.11-.175.224.224,0,0,1,.047-.193.456.456,0,0,1,.033-.036.138.138,0,0,1,.033-.03l2.546-1.67a.552.552,0,0,1,.218-.094.268.268,0,0,1,.219.069.263.263,0,0,1,.115.2.669.669,0,0,1-.041.235l-1.058,2.855a.091.091,0,0,1-.018.042c-.011.016-.02.029-.029.04a.228.228,0,0,1-.175.091.294.294,0,0,1-.2-.07.216.216,0,0,1-.1-.183.911.911,0,0,1,.05-.235l.172-.467-.889-.708Zm2.171-1.513q-.315.247-.626.461l-.63.434.66.526q.144-.36.282-.717A7.605,7.605,0,0,1-402.859-614.281Z" transform="translate(409.098 620.404)" stroke="#000" stroke-miterlimit="10" stroke-width="0.2"/>
        <path id="Path_16443" data-name="Path 16443" d="M-400.408-609.773a.318.318,0,0,1-.123-.1.284.284,0,0,1-.061-.139l-.24-2.6-.874,1.987a.243.243,0,0,1-.146.132.268.268,0,0,1-.208-.006.25.25,0,0,1-.14-.147.249.249,0,0,1,0-.2l1.208-2.746a.264.264,0,0,1,.15-.147.276.276,0,0,1,.219.011.322.322,0,0,1,.127.1.286.286,0,0,1,.06.144q.012.106.03.312c.013.137.027.288.042.455s.032.343.048.527.032.362.046.532.027.323.04.46.024.243.033.318l.876-1.991a.245.245,0,0,1,.148-.135.268.268,0,0,1,.206.009.254.254,0,0,1,.142.144.248.248,0,0,1-.005.2l-1.208,2.746a.264.264,0,0,1-.151.144A.283.283,0,0,1-400.408-609.773Z" transform="translate(409.098 620.404)" stroke="#000" stroke-miterlimit="10" stroke-width="0.2"/>
        <path id="Path_16444" data-name="Path 16444" d="M-397.039-609.983a.425.425,0,0,0-.031-.3.537.537,0,0,0-.135-.154,2.029,2.029,0,0,0-.244-.149c-.089-.046-.179-.1-.27-.145a2.456,2.456,0,0,1-.258-.165.913.913,0,0,1-.209-.212.772.772,0,0,1-.122-.283.957.957,0,0,1,0-.378.925.925,0,0,1,.4-.661,1.1,1.1,0,0,1,.806-.127c.064.011.146.03.245.057a1.658,1.658,0,0,1,.286.106.792.792,0,0,1,.228.157.235.235,0,0,1,.07.213.237.237,0,0,1-.1.156.262.262,0,0,1-.207.039.363.363,0,0,1-.116-.04c-.037-.019-.076-.042-.118-.067a1.194,1.194,0,0,0-.143-.072.99.99,0,0,0-.2-.054.975.975,0,0,0-.2-.012.511.511,0,0,0-.183.043.351.351,0,0,0-.142.119.511.511,0,0,0-.081.212.505.505,0,0,0,0,.172.416.416,0,0,0,.04.126.318.318,0,0,0,.064.087.762.762,0,0,0,.072.06,1.718,1.718,0,0,0,.246.153c.091.047.181.1.271.148a2.746,2.746,0,0,1,.256.167.976.976,0,0,1,.207.209.773.773,0,0,1,.123.278.945.945,0,0,1,0,.372,1.077,1.077,0,0,1-.159.42.931.931,0,0,1-.291.282,1.018,1.018,0,0,1-.392.138,1.416,1.416,0,0,1-.458-.009,2.3,2.3,0,0,1-.288-.071,1.84,1.84,0,0,1-.3-.123.877.877,0,0,1-.229-.168.23.23,0,0,1-.071-.205.245.245,0,0,1,.1-.159.232.232,0,0,1,.188-.045.345.345,0,0,1,.114.045l.139.08a1.411,1.411,0,0,0,.186.089,1.216,1.216,0,0,0,.25.068.631.631,0,0,0,.453-.057A.484.484,0,0,0-397.039-609.983Z" transform="translate(409.098 620.404)" stroke="#000" stroke-miterlimit="10" stroke-width="0.2"/>
        <path id="Path_16445" data-name="Path 16445" d="M-394.893-609.028a.226.226,0,0,1-.1.143.3.3,0,0,1-.145.059.3.3,0,0,1-.2-.056.221.221,0,0,1-.094-.174c0-.013,0-.03,0-.049a.2.2,0,0,1,0-.044l.76-2.949a.552.552,0,0,1,.1-.216.273.273,0,0,1,.209-.1.263.263,0,0,1,.217.069.619.619,0,0,1,.128.2l1.138,2.824a.1.1,0,0,1,.015.043c0,.019.005.036.006.048a.228.228,0,0,1-.069.186.293.293,0,0,1-.193.081.216.216,0,0,1-.2-.071.927.927,0,0,1-.121-.207l-.186-.462-1.134.075Zm.589-2.58q-.068.4-.153.763t-.174.744l.842-.055q-.137-.361-.274-.72A7.2,7.2,0,0,1-394.3-611.608Z" transform="translate(409.098 620.404)" stroke="#000" stroke-miterlimit="10" stroke-width="0.2"/>
        <path id="Path_16446" data-name="Path 16446" d="M-392.3-611.4a1.771,1.771,0,0,1-.085-.515,1.044,1.044,0,0,1,.087-.443.964.964,0,0,1,.272-.35,1.375,1.375,0,0,1,.472-.24,1.623,1.623,0,0,1,.344-.068,1.271,1.271,0,0,1,.317.009.728.728,0,0,1,.245.082.263.263,0,0,1,.127.147.227.227,0,0,1-.018.18.253.253,0,0,1-.15.118.221.221,0,0,1-.107.01l-.1-.027-.027-.007a.754.754,0,0,0-.465,0,.793.793,0,0,0-.282.143.5.5,0,0,0-.15.21.622.622,0,0,0-.031.27,1.6,1.6,0,0,0,.066.321l.3.96a1.581,1.581,0,0,0,.127.3.632.632,0,0,0,.178.205.494.494,0,0,0,.242.089.814.814,0,0,0,.314-.041.786.786,0,0,0,.385-.257l.019-.021.07-.08a.2.2,0,0,1,.094-.053.248.248,0,0,1,.19.013.219.219,0,0,1,.115.133.268.268,0,0,1-.02.2.667.667,0,0,1-.157.2,1.334,1.334,0,0,1-.257.184,1.568,1.568,0,0,1-.322.138,1.365,1.365,0,0,1-.525.068.951.951,0,0,1-.422-.135,1.034,1.034,0,0,1-.322-.314,1.739,1.739,0,0,1-.221-.475Z" transform="translate(409.098 620.404)" stroke="#000" stroke-miterlimit="10" stroke-width="0.2"/>
        <path id="Path_16447" data-name="Path 16447" d="M-389.2-613.376l-.509.3a.261.261,0,0,1-.2.032.239.239,0,0,1-.153-.111.251.251,0,0,1-.018-.184.245.245,0,0,1,.12-.17l1.479-.872a.287.287,0,0,1,.2-.032.226.226,0,0,1,.165.112.23.23,0,0,1,.019.19.271.271,0,0,1-.128.163l-.508.3,1.386,2.354a.24.24,0,0,1,.022.191.26.26,0,0,1-.124.164.259.259,0,0,1-.2.029.244.244,0,0,1-.157-.112Z" transform="translate(409.098 620.404)" stroke="#000" stroke-miterlimit="10" stroke-width="0.2"/>
        <path id="Path_16448" data-name="Path 16448" d="M-387.628-614.8a.24.24,0,0,1-.056-.186.262.262,0,0,1,.1-.181.26.26,0,0,1,.194-.066.237.237,0,0,1,.175.084l1.964,2.3a.239.239,0,0,1,.055.184.257.257,0,0,1-.094.183.261.261,0,0,1-.195.065.245.245,0,0,1-.173-.083Z" transform="translate(409.098 620.404)" stroke="#000" stroke-miterlimit="10" stroke-width="0.2"/>
        <path id="Path_16449" data-name="Path 16449" d="M-383.323-614.509a1.28,1.28,0,0,1-.4.343,1.057,1.057,0,0,1-.445.121,1.15,1.15,0,0,1-.454-.077,1.607,1.607,0,0,1-.434-.252l-.782-.63a1.746,1.746,0,0,1-.335-.354,1.108,1.108,0,0,1-.182-.416.989.989,0,0,1,.02-.46,1.353,1.353,0,0,1,.266-.49,1.362,1.362,0,0,1,.422-.365.989.989,0,0,1,.445-.117,1.092,1.092,0,0,1,.445.089,1.754,1.754,0,0,1,.418.251l.782.631a1.564,1.564,0,0,1,.338.369,1.13,1.13,0,0,1,.173.427,1.045,1.045,0,0,1-.023.46A1.28,1.28,0,0,1-383.323-614.509Zm-2.363-1.9a.585.585,0,0,0-.157.529.936.936,0,0,0,.336.461l.783.63a.9.9,0,0,0,.531.224.583.583,0,0,0,.478-.256.585.585,0,0,0,.147-.521.9.9,0,0,0-.33-.473l-.783-.63a.931.931,0,0,0-.522-.229A.579.579,0,0,0-385.686-616.412Z" transform="translate(409.098 620.404)" stroke="#000" stroke-miterlimit="10" stroke-width="0.2"/>
        <path id="Path_16450" data-name="Path 16450" d="M-380.931-618.635a.318.318,0,0,1-.1.122.277.277,0,0,1-.139.06l-2.606.224,1.982.886a.247.247,0,0,1,.132.147.268.268,0,0,1-.008.208.252.252,0,0,1-.148.14.248.248,0,0,1-.195-.005l-2.739-1.224a.264.264,0,0,1-.146-.151.276.276,0,0,1,.013-.219.313.313,0,0,1,.1-.126.273.273,0,0,1,.144-.059l.312-.029.455-.039.528-.045.532-.043c.17-.013.323-.025.46-.037s.243-.022.318-.031l-1.985-.888a.244.244,0,0,1-.135-.148.275.275,0,0,1,.01-.207.254.254,0,0,1,.146-.14.248.248,0,0,1,.2.005l2.738,1.224a.266.266,0,0,1,.143.153A.283.283,0,0,1-380.931-618.635Z" transform="translate(409.098 620.404)" stroke="#000" stroke-miterlimit="10" stroke-width="0.2"/>
      </g>
      <g id="Group_12262" data-name="Group 12262" transform="translate(12.75 10.5)">
        <path id="Path_936" data-name="Path 936" d="M-393.125-625.245h-6.7a.437.437,0,0,0-.422.449v6.846a.437.437,0,0,0,.422.45h9.657a.436.436,0,0,0,.421-.45v-6.936a.384.384,0,0,0-.371-.4h-1.14" transform="translate(400.25 631.5)" fill="none" stroke="#0084f5" stroke-linecap="round" stroke-linejoin="round" stroke-width="0.993"/>
        <path id="Path_937" data-name="Path 937" d="M-397.333-626.914l-1.41-.007-.006-.659A3.791,3.791,0,0,1-395.1-631.5a3.782,3.782,0,0,1,3.833,3.735c0,.092,0,.185,0,.278l.019.647" transform="translate(400.25 631.5)" fill="none" stroke="#0084f5" stroke-linecap="round" stroke-linejoin="round" stroke-width="0.993"/>
        <path id="Path_931" data-name="Path 931" d="M-393.762-619.057l-.62-2.417a1.193,1.193,0,0,0,.613-1.167,1.286,1.286,0,0,0-1.485-1.066,1.3,1.3,0,0,0-1.058,1.195,1.2,1.2,0,0,0,.624,1.041l-.582,2.414" transform="translate(400.25 631.5)" fill="none" stroke="#0084f5" stroke-linecap="round" stroke-linejoin="round" stroke-width="0.993"/>
      </g>
    </g>
  </g>
</svg>
